<svg width="1200" height="300" viewBox="0 0 1200 300"
  xmlns="http://www.w3.org/2000/svg" role="img" aria-label="CosmosFlutter — Showcase de Astronomía en Flutter">
  <title>CosmosFlutter — Showcase de Astronomía en Flutter</title>

  <!-- ────────────────────────────────────────────────────────────
       Fondo
  ──────────────────────────────────────────────────────────────── -->
  <rect width="1200" height="300" fill="#080C18"/>

  <!-- ────────────────────────────────────────────────────────────
       Estrellas — distribuidas evitando área del planeta (c:205,150 r≈85)
  ──────────────────────────────────────────────────────────────── -->

  <!-- Micro (r=0.7) -->
  <circle cx="38" cy="22" r="0.7" fill="#8AAFC8" opacity="0.5"/>
  <circle cx="67" cy="48" r="0.7" fill="#8AAFC8" opacity="0.4"/>
  <circle cx="302" cy="18" r="0.7" fill="#B0C8E0" opacity="0.6"/>
  <circle cx="358" cy="44" r="0.7" fill="#8AAFC8" opacity="0.4"/>
  <circle cx="422" cy="26" r="0.7" fill="#B0C8E0" opacity="0.5"/>
  <circle cx="512" cy="37" r="0.7" fill="#8AAFC8" opacity="0.4"/>
  <circle cx="593" cy="13" r="0.7" fill="#B0C8E0" opacity="0.6"/>
  <circle cx="652" cy="56" r="0.7" fill="#8AAFC8" opacity="0.3"/>
  <circle cx="724" cy="21" r="0.7" fill="#B0C8E0" opacity="0.5"/>
  <circle cx="802" cy="47" r="0.7" fill="#8AAFC8" opacity="0.4"/>
  <circle cx="873" cy="19" r="0.7" fill="#B0C8E0" opacity="0.6"/>
  <circle cx="942" cy="40" r="0.7" fill="#8AAFC8" opacity="0.4"/>
  <circle cx="1012" cy="23" r="0.7" fill="#B0C8E0" opacity="0.5"/>
  <circle cx="1062" cy="49" r="0.7" fill="#8AAFC8" opacity="0.3"/>
  <circle cx="1122" cy="29" r="0.7" fill="#B0C8E0" opacity="0.6"/>
  <circle cx="1172" cy="59" r="0.7" fill="#8AAFC8" opacity="0.4"/>
  <circle cx="22" cy="112" r="0.7" fill="#8AAFC8" opacity="0.4"/>
  <circle cx="48" cy="157" r="0.7" fill="#B0C8E0" opacity="0.3"/>
  <circle cx="18" cy="202" r="0.7" fill="#8AAFC8" opacity="0.4"/>
  <circle cx="58" cy="270" r="0.7" fill="#8AAFC8" opacity="0.4"/>
  <circle cx="142" cy="285" r="0.7" fill="#B0C8E0" opacity="0.3"/>
  <circle cx="322" cy="274" r="0.7" fill="#8AAFC8" opacity="0.4"/>
  <circle cx="412" cy="292" r="0.7" fill="#B0C8E0" opacity="0.5"/>
  <circle cx="533" cy="279" r="0.7" fill="#8AAFC8" opacity="0.3"/>
  <circle cx="643" cy="267" r="0.7" fill="#B0C8E0" opacity="0.4"/>
  <circle cx="758" cy="287" r="0.7" fill="#8AAFC8" opacity="0.5"/>
  <circle cx="853" cy="274" r="0.7" fill="#B0C8E0" opacity="0.3"/>
  <circle cx="963" cy="292" r="0.7" fill="#8AAFC8" opacity="0.4"/>
  <circle cx="1053" cy="277" r="0.7" fill="#B0C8E0" opacity="0.5"/>
  <circle cx="1153" cy="282" r="0.7" fill="#8AAFC8" opacity="0.3"/>

  <!-- Pequeñas (r=1.2) -->
  <circle cx="53" cy="33" r="1.2" fill="#C8DEF0" opacity="0.5"/>
  <circle cx="310" cy="56" r="1.2" fill="#C8DEF0" opacity="0.5"/>
  <circle cx="370" cy="29" r="1.2" fill="#DDEEFF" opacity="0.6"/>
  <circle cx="478" cy="19" r="1.2" fill="#C8DEF0" opacity="0.5"/>
  <circle cx="562" cy="49" r="1.2" fill="#DDEEFF" opacity="0.4"/>
  <circle cx="690" cy="33" r="1.2" fill="#C8DEF0" opacity="0.5"/>
  <circle cx="780" cy="56" r="1.2" fill="#DDEEFF" opacity="0.6"/>
  <circle cx="860" cy="29" r="1.2" fill="#C8DEF0" opacity="0.5"/>
  <circle cx="978" cy="46" r="1.2" fill="#DDEEFF" opacity="0.4"/>
  <circle cx="1080" cy="33" r="1.2" fill="#C8DEF0" opacity="0.5"/>
  <circle cx="1150" cy="56" r="1.2" fill="#DDEEFF" opacity="0.6"/>
  <circle cx="1187" cy="36" r="1.2" fill="#C8DEF0" opacity="0.5"/>
  <circle cx="90" cy="279" r="1.2" fill="#C8DEF0" opacity="0.4"/>
  <circle cx="470" cy="283" r="1.2" fill="#DDEEFF" opacity="0.5"/>
  <circle cx="722" cy="276" r="1.2" fill="#C8DEF0" opacity="0.4"/>
  <circle cx="1012" cy="283" r="1.2" fill="#DDEEFF" opacity="0.5"/>
  <circle cx="312" cy="90" r="1.2" fill="#C8DEF0" opacity="0.3"/>
  <circle cx="350" cy="222" r="1.2" fill="#C8DEF0" opacity="0.3"/>

  <!-- Medianas (r=2) -->
  <circle cx="342" cy="38" r="2" fill="#E8F4FF" opacity="0.6"/>
  <circle cx="617" cy="29" r="2" fill="#E8F4FF" opacity="0.5"/>
  <circle cx="907" cy="16" r="2" fill="#E8F4FF" opacity="0.7"/>
  <circle cx="1092" cy="63" r="2" fill="#E8F4FF" opacity="0.5"/>
  <circle cx="527" cy="283" r="2" fill="#E8F4FF" opacity="0.4"/>
  <circle cx="822" cy="279" r="2" fill="#E8F4FF" opacity="0.5"/>

  <!-- ────────────────────────────────────────────────────────────
       Planeta — centro (205, 150), radio 82
  ──────────────────────────────────────────────────────────────── -->

  <!-- Anillo exterior — mitad trasera -->
  <path d="M -170 0 A 170 44 0 0 0 170 0" transform="translate(205,150) rotate(-18)" fill="none" stroke="#0088BB" stroke-width="0.9" opacity="0.22"/>

  <!-- Anillo principal — mitad trasera -->
  <path d="M -138 0 A 138 36 0 0 0 138 0" transform="translate(205,150) rotate(-18)" fill="none" stroke="#00BFFF" stroke-width="1.8" opacity="0.55"/>

  <!-- Cuerpo del planeta -->
  <circle cx="205" cy="150" r="82" fill="#121B2F"/>

  <!-- Regiones de superficie (colores planos, sin degradados) -->
  <circle cx="178" cy="122" r="44" fill="#182540" opacity="0.90"/>
  <circle cx="233" cy="170" r="56" fill="#0E1628" opacity="0.70"/>
  <circle cx="198" cy="148" r="38" fill="#162238" opacity="0.50"/>

  <!-- Cráteres -->
  <circle cx="193" cy="134" r="11" fill="#0A1020" opacity="0.80"/>
  <circle cx="223" cy="163" r="8" fill="#0A1020" opacity="0.60"/>
  <circle cx="173" cy="169" r="6" fill="#0A1020" opacity="0.50"/>
  <circle cx="238" cy="134" r="5" fill="#0A1020" opacity="0.40"/>

  <!-- Borde del planeta -->
  <circle cx="205" cy="150" r="82" fill="none" stroke="#1D3058" stroke-width="1.5"/>

  <!-- Anillo principal — mitad delantera -->
  <path d="M -138 0 A 138 36 0 0 1 138 0" transform="translate(205,150) rotate(-18)" fill="none" stroke="#00BFFF" stroke-width="1.8" opacity="0.88"/>

  <!-- Anillo exterior — mitad delantera -->
  <path d="M -170 0 A 170 44 0 0 1 170 0" transform="translate(205,150) rotate(-18)" fill="none" stroke="#0088BB" stroke-width="0.9" opacity="0.35"/>

  <!-- Satélite sobre el anillo delantero (~30° local → aprox (324, 132)) -->
  <circle cx="324" cy="132" r="3" fill="#00E5FF"/>
  <circle cx="324" cy="132" r="5.5" fill="none" stroke="#00E5FF" stroke-width="0.8" opacity="0.45"/>

  <!-- Anillo interior tenue — trasero -->
  <path d="M -105 0 A 105 27 0 0 0 105 0" transform="translate(205,150) rotate(-18)" fill="none" stroke="#006699" stroke-width="0.8" opacity="0.18"/>
  <!-- Anillo interior tenue — delantero -->
  <path d="M -105 0 A 105 27 0 0 1 105 0" transform="translate(205,150) rotate(-18)" fill="none" stroke="#006699" stroke-width="0.8" opacity="0.28"/>

  <!-- ────────────────────────────────────────────────────────────
       Separador vertical
  ──────────────────────────────────────────────────────────────── -->
  <line x1="372" y1="55" x2="372" y2="245" stroke="#1A3050" stroke-width="1" opacity="0.7"/>

  <!-- ────────────────────────────────────────────────────────────
       Título principal
  ──────────────────────────────────────────────────────────────── -->
  <text x="407" y="168" font-family="'Segoe UI', system-ui, -apple-system, Helvetica, Arial, sans-serif" font-size="78" font-weight="700" letter-spacing="-1.5">
    <tspan fill="#4A80A8">Cosmos</tspan>
    <tspan fill="#EEF4FF">Flutter</tspan>
  </text>

  <!-- ────────────────────────────────────────────────────────────
       Línea de acento bajo el título
  ──────────────────────────────────────────────────────────────── -->
  <line x1="409" y1="178" x2="1095" y2="178" stroke="#0B4A6A" stroke-width="0.8" opacity="0.45"/>

  <!-- ────────────────────────────────────────────────────────────
       Subtítulo
  ──────────────────────────────────────────────────────────────── -->
  <text x="412" y="207" font-family="'Segoe UI', system-ui, -apple-system, Helvetica, Arial, sans-serif" font-size="15" font-weight="400" letter-spacing="3.5" fill="#3A6080">SHOWCASE DE ASTRONOMÍA  ·  FLUTTER + DART</text>

  <!-- ────────────────────────────────────────────────────────────
       Info técnica
  ──────────────────────────────────────────────────────────────── -->
  <text x="412" y="238" font-family="'Segoe UI', system-ui, -apple-system, Helvetica, Arial, sans-serif" font-size="12" font-weight="400" letter-spacing="1" fill="#1E4060" opacity="0.75">Flutter 3.29.3  ·  Dart 3.7.2  ·  Riverpod  ·  go_router  ·  Supabase</text>

  <!-- ────────────────────────────────────────────────────────────
       Constelación decorativa (esquina superior derecha)
  ──────────────────────────────────────────────────────────────── -->
  <circle cx="1065" cy="43" r="2.2" fill="#D8EEFF" opacity="0.70"/>
  <circle cx="1098" cy="28" r="1.8" fill="#D8EEFF" opacity="0.60"/>
  <circle cx="1126" cy="52" r="2.5" fill="#D8EEFF" opacity="0.80"/>
  <circle cx="1156" cy="36" r="1.5" fill="#D8EEFF" opacity="0.60"/>
  <circle cx="1141" cy="73" r="2.0" fill="#D8EEFF" opacity="0.70"/>
  <circle cx="1176" cy="63" r="1.5" fill="#D8EEFF" opacity="0.50"/>

  <line x1="1065" y1="43" x2="1098" y2="28" stroke="#D8EEFF" stroke-width="0.5" opacity="0.22"/>
  <line x1="1098" y1="28" x2="1126" y2="52" stroke="#D8EEFF" stroke-width="0.5" opacity="0.22"/>
  <line x1="1126" y1="52" x2="1156" y2="36" stroke="#D8EEFF" stroke-width="0.5" opacity="0.22"/>
  <line x1="1126" y1="52" x2="1141" y2="73" stroke="#D8EEFF" stroke-width="0.5" opacity="0.22"/>
  <line x1="1141" y1="73" x2="1176" y2="63" stroke="#D8EEFF" stroke-width="0.5" opacity="0.22"/>
</svg>
